<?xml version="1.0" encoding="utf-8"?>
<svg viewBox="0 0 200 205" xmlns="http://www.w3.org/2000/svg">
  <defs/>
  <path d="M 179.963 0.661 L 21.628 0.661 C 10.135 0.661 0.795 10.236 0.795 21.995 L 0.795 205.47 L 200.795 205.47 L 200.795 21.995 C 200.795 10.236 191.454 0.661 179.963 0.661 Z M 192.461 196.937 L 9.129 196.937 L 9.129 21.995 C 9.129 14.939 14.736 9.194 21.628 9.194 L 179.963 9.194 C 186.853 9.194 192.461 14.939 192.461 21.995 L 192.461 196.937 Z M 25.794 94.531 L 92.463 94.531 L 92.463 26.262 L 25.794 26.262 L 25.794 94.531 Z M 34.129 34.795 L 84.128 34.795 L 84.128 85.999 L 34.129 85.999 L 34.129 34.795 Z M 109.127 94.531 L 175.796 94.531 L 175.796 26.262 L 109.127 26.262 L 109.127 94.531 Z M 117.461 34.795 L 167.462 34.795 L 167.462 85.999 L 117.461 85.999 L 117.461 34.795 Z M 25.794 179.868 L 92.463 179.868 L 92.463 111.599 L 25.794 111.599 L 25.794 179.868 Z M 34.129 120.135 L 84.128 120.135 L 84.128 171.337 L 34.129 171.337 L 34.129 120.135 Z M 109.127 179.868 L 175.796 179.868 L 175.796 111.599 L 109.127 111.599 L 109.127 179.868 Z M 117.461 120.135 L 167.462 120.135 L 167.462 171.337 L 117.461 171.337 L 117.461 120.135 Z" style="fill: rgb(150, 150, 150);"/>
  <rect style="stroke: rgb(0, 0, 0); fill: rgb(255, 0, 0); fill-rule: nonzero; stroke-width: 0px;" x="25.823" y="111.601" width="66.639" height="68.268"/>
  <rect style="stroke: rgb(0, 0, 0); fill-rule: nonzero; stroke-width: 0px; fill: rgb(0, 0, 250);" x="109.133" y="26.264" width="66.663" height="68.267"/>
  <rect style="stroke: rgb(0, 0, 0); fill-rule: nonzero; stroke-width: 0px; fill: rgb(250, 0, 250);" x="109.127" y="111.599" width="66.639" height="68.268"/>
  <ellipse style="stroke: rgb(0, 0, 0); stroke-width: 0px; fill: rgb(150,150 , 150);" cx="44.525" cy="45.295" rx="6" ry="6"/>
  <ellipse style="stroke: rgb(0, 0, 0); stroke-width: 0px; fill: rgb(150, 150, 150);" cx="73.525" cy="75.295" rx="6" ry="6"/>
  <ellipse style="stroke: rgb(0, 0, 0); stroke-width: 0px; fill: rgb(150, 150, 150);" cx="59.025" cy="60.295" rx="6" ry="6"/>
  <ellipse style="stroke: rgb(0, 0, 0); stroke-width: 0px; fill: rgb(150, 150, 150);" cx="44.525" cy="75.295" rx="6" ry="6"/>
  <ellipse style="stroke: rgb(0, 0, 0); stroke-width: 0px; fill: rgb(150, 150, 150);" cx="73.525" cy="45.295" rx="6" ry="6"/>
</svg>